<svg width="90" height="33" viewBox="0 0 90 33" fill="none" xmlns="http://www.w3.org/2000/svg">
<path d="M27.2817 4.07959H23.442V5.37713C23.442 6.1064 22.8487 6.69361 22.1225 6.69361C21.3963 6.69361 20.803 6.10167 20.803 5.37713V4.07959H9.13666V5.37713C9.13666 6.1064 8.54337 6.69361 7.81719 6.69361C7.09101 6.69361 6.49773 6.10167 6.49773 5.37713V4.07959H0.735735C0.327555 4.07959 6.10352e-05 4.41108 6.10352e-05 4.8136V29.822C6.10352e-05 30.2293 0.332301 30.556 0.735735 30.556H14.0111C14.4193 30.556 14.7468 30.2246 14.7468 29.822V18.0542C14.7468 17.6469 14.4145 17.3202 14.0111 17.3202H6.63537C6.22719 17.3202 5.89969 17.6517 5.89969 18.0542V25.4085C5.89969 25.8158 6.23193 26.1425 6.63537 26.1425H11.0589C12.0699 26.1425 12.0271 26.4361 11.7946 26.8765C11.7946 26.8765 11.4623 27.6105 11.0589 27.6105H3.68792C3.27974 27.6105 2.95225 27.279 2.95225 26.8765V16.5767C2.95225 16.1694 3.28449 15.8427 3.68792 15.8427H27.2817C27.6899 15.8427 28.0174 15.5112 28.0174 15.1087V4.8136C28.0174 4.40634 27.6851 4.07959 27.2817 4.07959ZM11.7993 22.4677C11.7993 22.875 11.4671 23.2017 11.0637 23.2017H9.58756C9.17938 23.2017 8.85188 22.8702 8.85188 22.4677V20.9997C8.85188 20.5924 9.18412 20.2657 9.58756 20.2657H11.0637C11.4718 20.2657 11.7993 20.5972 11.7993 20.9997V22.4677ZM25.0699 12.1726C25.0699 12.5799 24.7377 12.9067 24.3343 12.9067H3.68792C3.27974 12.9067 2.95225 12.5752 2.95225 12.1726V7.75911C2.95225 7.35185 3.28449 7.0251 3.68792 7.0251H24.3343C24.7424 7.0251 25.0699 7.35659 25.0699 7.75911V12.1726Z" fill="#140300"/>
<path d="M16.2228 18.0541V29.8219C16.2228 30.2292 16.5551 30.5559 16.9585 30.5559H27.2817C27.6899 30.5559 28.0174 30.2244 28.0174 29.8219V18.0541C28.0174 17.6468 27.6851 17.3201 27.2817 17.3201H16.9585C16.5503 17.3201 16.2228 17.6516 16.2228 18.0541ZM24.3342 27.6199H19.9107C19.5025 27.6199 19.175 27.2884 19.175 26.8859V21.0043C19.175 20.5971 19.5073 20.2703 19.9107 20.2703H24.3342C24.7424 20.2703 25.0699 20.6018 25.0699 21.0043V26.8859C25.0699 27.2931 24.7377 27.6199 24.3342 27.6199Z" fill="#D32E18"/>
<path d="M23.1571 3.08508C23.1571 2.51493 22.6939 2.05273 22.1225 2.05273C21.551 2.05273 21.0878 2.51493 21.0878 3.08508V5.35815C21.0878 5.9283 21.551 6.3905 22.1225 6.3905C22.6939 6.3905 23.1571 5.9283 23.1571 5.35815V3.08508Z" fill="#D32E18"/>
<path d="M8.84709 3.08508C8.84709 2.51493 8.38384 2.05273 7.8124 2.05273C7.24096 2.05273 6.77771 2.51493 6.77771 3.08508V5.35815C6.77771 5.9283 7.24096 6.3905 7.8124 6.3905C8.38384 6.3905 8.84709 5.9283 8.84709 5.35815V3.08508Z" fill="#D32E18"/>
<path d="M36.7715 13V1.89739C37.5562 1.76383 38.6581 1.66365 40.2108 1.66365C41.7802 1.66365 42.8988 1.96417 43.6501 2.56522C44.3847 3.13287 44.8522 4.06783 44.8522 5.16974C44.8522 6.27165 44.5016 7.2233 43.8171 7.84104C42.9489 8.64243 41.6634 9.02643 40.1607 9.02643C39.8268 9.02643 39.5263 9.00974 39.2926 8.95965V13H36.7715ZM39.2926 3.68383V7.00626C39.5096 7.05635 39.7601 7.07304 40.1441 7.07304C41.4964 7.07304 42.3312 6.38852 42.3312 5.25322C42.3312 4.21809 41.6133 3.60035 40.3277 3.60035C39.8268 3.60035 39.4762 3.63374 39.2926 3.68383ZM46.3891 13V1.14609H48.9269V13H46.3891ZM57.7821 8.17496V11.0299C57.7821 11.7979 57.8155 12.5492 57.9157 13H55.6284L55.4781 12.1819H55.428C54.8937 12.833 54.059 13.1837 53.0906 13.1837C51.4377 13.1837 50.4527 11.9816 50.4527 10.6793C50.4527 8.55896 52.356 7.55722 55.2444 7.55722V7.45704C55.2444 7.00626 55.0106 6.38852 53.7584 6.38852C52.9237 6.38852 52.0388 6.67235 51.5045 7.00626L51.0371 5.37009C51.6047 5.05287 52.7233 4.63548 54.2092 4.63548C56.9306 4.63548 57.7821 6.23826 57.7821 8.17496ZM55.3278 10.0282V9.1433C53.9922 9.1433 52.9571 9.46052 52.9571 10.4289C52.9571 11.08 53.3911 11.3972 53.9588 11.3972C54.5765 11.3972 55.1108 10.9798 55.2777 10.4623C55.3111 10.3287 55.3278 10.1784 55.3278 10.0282ZM59.8076 13V7.44035C59.8076 6.42191 59.7742 5.57043 59.7408 4.83583H61.9447L62.0615 5.97113H62.1116C62.4455 5.43687 63.2636 4.65217 64.6327 4.65217C66.3022 4.65217 67.5544 5.77078 67.5544 8.17496V13H65.0167V8.47548C65.0167 7.42365 64.6494 6.70574 63.7311 6.70574C63.0299 6.70574 62.6125 7.18991 62.4288 7.65739C62.3621 7.82435 62.3454 8.05809 62.3454 8.29183V13H59.8076Z" fill="#140300"/>
<path d="M79.0734 6.55548V12.4824C78.2887 12.7496 76.8027 13.1169 75.3168 13.1169C73.2633 13.1169 71.7774 12.5993 70.7422 11.6143C69.7238 10.6292 69.1561 9.16 69.1561 7.50713C69.1728 3.7673 71.8942 1.63026 75.584 1.63026C77.0365 1.63026 78.1551 1.91409 78.7061 2.16452L78.1718 4.21809C77.5541 3.93426 76.8027 3.73391 75.5673 3.73391C73.4469 3.73391 71.8274 4.9193 71.8274 7.37357C71.8274 9.71096 73.2967 11.0633 75.3836 11.0633C75.9513 11.0633 76.4187 10.9965 76.6191 10.913V8.54226H74.8827V6.55548H79.0734ZM84.9753 4.63548C87.4629 4.63548 89.1325 6.35513 89.1325 8.82609C89.1325 11.8146 87.0121 13.1837 84.825 13.1837C82.4375 13.1837 80.601 11.6143 80.601 8.97635C80.601 6.32174 82.3374 4.63548 84.9753 4.63548ZM84.8918 6.4553C83.6897 6.4553 83.2222 7.70748 83.2222 8.90957C83.2222 10.312 83.8066 11.3638 84.8918 11.3638C85.8935 11.3638 86.5113 10.3788 86.5113 8.89287C86.5113 7.69078 86.0438 6.4553 84.8918 6.4553Z" fill="#D32E18"/>
<path d="M41.7397 24.7244H42.5625C43.0396 24.7244 43.6597 24.9391 43.6597 25.6546C43.6597 26.0958 43.4808 26.6086 42.5745 26.6086H41.6085C41.1434 28.4452 39.6527 29.745 38.0428 29.745C37.4227 29.745 36.4567 29.6139 35.8366 28.958L36.1109 27.7535C36.4925 27.9562 36.9456 28.1232 37.8043 28.1232C38.9014 28.1232 39.7839 27.5746 40.1894 26.6086C37.8997 26.6086 37.2796 25.3684 37.2796 24.1878C37.2796 22.6971 38.4125 21.7788 39.45 21.7788C40.2132 21.7788 41.5369 22.3274 41.7397 24.7244ZM40.2132 24.7244H40.3563C40.2013 23.7108 39.7004 23.2337 39.1996 23.2337C38.7702 23.2337 38.496 23.5438 38.496 23.8777C38.496 24.2593 38.7345 24.7244 40.2132 24.7244ZM42.5664 26.6086C41.9462 26.6086 41.5527 26.2509 41.5527 25.6665C41.5527 25.1895 41.8508 24.7244 42.5664 24.7244H42.8049C44.1882 24.7244 45.4881 24.5694 46.5256 24.2355C47.098 24.0685 47.3723 23.9612 47.6943 23.8539C46.8714 23.4961 45.7028 23.0429 44.8322 23.0429C44.3313 23.0429 43.6873 23.1145 43.1388 23.3411L43.4488 21.7192C43.8662 21.5045 44.4983 21.4449 44.9872 21.4449C46.1917 21.4449 47.1577 21.8862 48.231 22.3513C49.185 22.7448 49.4831 22.8283 49.9244 22.8283H50.461L50.2106 24.4859H50.1152C49.507 24.4859 48.8034 24.7244 48.1833 25.106C46.2155 26.2867 44.6533 26.6086 42.8049 26.6086H42.5664ZM46.4183 27.5746C46.943 27.5746 47.2769 27.9204 47.2769 28.469C47.2769 29.0176 46.943 29.3515 46.4183 29.3515C45.9293 29.3515 45.5716 29.0176 45.5716 28.469C45.5716 27.9204 45.9293 27.5746 46.4183 27.5746Z" fill="#D32E18"/>
<path d="M53.9256 25.4638L53.9495 25.428C55.2255 25.9885 59.0655 27.2049 63.3587 27.2049C67.5207 27.2049 70.7883 26.5252 71.5396 25.6069C71.623 25.5115 71.6469 25.428 71.6469 25.1895C71.6469 24.474 71.2176 23.1741 70.5378 21.9458L72.0643 21.6238C72.3147 22.0531 72.9706 23.5319 72.9706 25.0822C72.9706 25.6785 72.8633 26.1793 72.744 26.3582C71.8019 27.825 68.3555 28.9937 63.1798 28.9937C59.3756 28.9937 55.8456 27.9681 54.7843 27.3599L53.9256 25.4638ZM64.3127 20.9321C63.8119 20.9321 63.4541 20.5982 63.4541 20.0616C63.4541 19.513 63.8119 19.1552 64.3127 19.1552C64.8255 19.1552 65.1714 19.513 65.1714 20.0616C65.1714 20.5982 64.8255 20.9321 64.3127 20.9321ZM73.7036 25.4996C74.598 25.3684 75.8978 25.0226 76.6134 24.5098C76.5537 24.319 76.3629 23.9493 75.9336 23.2814C75.1465 22.0412 74.2283 21.0275 73.3935 20.1093L74.6814 19.0002C75.23 19.6322 75.8859 20.479 76.5776 21.5403C77.3289 22.6852 77.6151 23.3291 77.7105 23.7346C77.9967 23.5319 78.3783 22.8998 78.3426 21.9816L78.1995 17.9627L79.6782 17.8554L79.8452 22.709C79.9048 24.2593 80.1433 24.6767 81.0616 24.7244C81.5267 24.7244 82.1468 24.9391 82.1468 25.6546C82.1468 26.0958 81.9679 26.6086 81.0496 26.6086C79.7975 26.6086 78.8673 26.0481 78.5453 24.5336C77.9729 25.8573 76.3749 26.8829 74.4191 26.8829H74.276L73.7036 25.4996ZM81.0446 26.6086C80.2456 26.6086 80.0667 26.0362 80.0667 25.6427C80.0667 25.2849 80.2695 24.7244 81.0446 24.7244H81.4024C82.1179 24.7244 82.6188 24.6767 82.8454 24.5217C82.8454 24.4859 82.8454 24.4382 82.8454 24.4024C82.8454 23.7108 82.3683 22.6613 81.8794 21.8504L83.2985 21.3734C83.8352 22.3513 84.2049 23.675 84.2049 24.6648C84.2049 25.0941 84.1333 25.6069 83.9664 25.9647C83.6563 26.2509 83.0719 26.6086 81.1639 26.6086H81.0446ZM82.583 28.2067C83.1077 28.2067 83.4416 28.5644 83.4416 29.113C83.4416 29.6616 83.1077 29.9955 82.583 29.9955C82.0941 29.9955 81.7363 29.6616 81.7363 29.113C81.7363 28.5644 82.0941 28.2067 82.583 28.2067Z" fill="#140300"/>
</svg>
