<svg width="128" height="128" viewBox="0 0 128 128" fill="none" xmlns="http://www.w3.org/2000/svg">
<rect width="128" height="128" fill="white"/>
<g clip-path="url(#clip0_572_3767)">
<path d="M103.778 27.6826H92.2685V31.569C92.2685 33.7533 90.4902 35.5121 88.3135 35.5121C86.1368 35.5121 84.3585 33.7391 84.3585 31.569V27.6826H49.3893V31.569C49.3893 33.7533 47.6109 35.5121 45.4343 35.5121C43.2576 35.5121 41.4793 33.7391 41.4793 31.569V27.6826H24.2081C22.9846 27.6826 22.0029 28.6755 22.0029 29.8811V104.786C22.0029 106.006 22.9988 106.984 24.2081 106.984H64.0001C65.2236 106.984 66.2052 105.991 66.2052 104.786V69.539C66.2052 68.3192 65.2094 67.3405 64.0001 67.3405H41.8918C40.6683 67.3405 39.6867 68.3334 39.6867 69.539V91.5664C39.6867 92.7863 40.6826 93.7649 41.8918 93.7649H55.1511C58.1814 93.7649 58.0533 94.6443 57.3562 95.9634C57.3562 95.9634 56.3604 98.1619 55.1511 98.1619H33.0571C31.8336 98.1619 30.8519 97.169 30.8519 95.9634V65.1137C30.8519 63.8939 31.8478 62.9152 33.0571 62.9152H103.778C105.001 62.9152 105.983 61.9223 105.983 60.7167V29.8811C105.983 28.6613 104.987 27.6826 103.778 27.6826ZM57.3705 82.7583C57.3705 83.9781 56.3746 84.9568 55.1653 84.9568H50.7408C49.5173 84.9568 48.5357 83.9639 48.5357 82.7583V78.3613C48.5357 77.1415 49.5316 76.1628 50.7408 76.1628H55.1653C56.3888 76.1628 57.3705 77.1557 57.3705 78.3613V82.7583ZM97.1482 51.9227C97.1482 53.1425 96.1524 54.1212 94.9431 54.1212H33.0571C31.8336 54.1212 30.8519 53.1284 30.8519 51.9227V38.7034C30.8519 37.4836 31.8478 36.5049 33.0571 36.5049H94.9431C96.1666 36.5049 97.1482 37.4978 97.1482 38.7034V51.9227Z" fill="#140300"/>
<path d="M70.6294 69.5408V104.788C70.6294 106.007 71.6253 106.986 72.8345 106.986H103.778C105.001 106.986 105.983 105.993 105.983 104.788V69.5408C105.983 68.321 104.987 67.3423 103.778 67.3423H72.8345C71.611 67.3423 70.6294 68.3351 70.6294 69.5408ZM94.9428 98.192H81.6835C80.46 98.192 79.4784 97.1992 79.4784 95.9936V78.3773C79.4784 77.1575 80.4743 76.1788 81.6835 76.1788H94.9428C96.1663 76.1788 97.1479 77.1717 97.1479 78.3773V95.9936C97.1479 97.2134 96.1521 98.192 94.9428 98.192Z" fill="#D32E18"/>
<path d="M91.4147 24.7058C91.4147 22.9981 90.0262 21.6138 88.3133 21.6138C86.6005 21.6138 85.2119 22.9981 85.2119 24.7058V31.5141C85.2119 33.2218 86.6005 34.6061 88.3133 34.6061C90.0262 34.6061 91.4147 33.2218 91.4147 31.5141V24.7058Z" fill="#D32E18"/>
<path d="M48.5212 24.7058C48.5212 22.9981 47.1326 21.6138 45.4198 21.6138C43.7069 21.6138 42.3184 22.9981 42.3184 24.7058V31.5141C42.3184 33.2218 43.7069 34.6061 45.4198 34.6061C47.1326 34.6061 48.5212 33.2218 48.5212 31.5141V24.7058Z" fill="#D32E18"/>
</g>
<defs>
<clipPath id="clip0_572_3767">
<rect width="83.9943" height="85.3865" fill="white" transform="translate(22.0029 21.6138)"/>
</clipPath>
</defs>
</svg>
